<!-- Generated by IcoMoon.io -->
<svg version="1.1" xmlns="http://www.w3.org/2000/svg" width="38" height="32" viewBox="0 0 38 32">
<title>circles</title>
<path fill="#88e4e6" d="M22.373 32c-8.823 0-15.999-7.178-15.999-16.001s7.176-15.999 15.999-15.999 16.001 7.178 16.001 16.001c0 8.821-7.178 15.999-16.001 15.999zM22.373 1.565c-7.959 0-14.434 6.477-14.434 14.436s6.475 14.436 14.434 14.436 14.436-6.477 14.436-14.436c0-7.96-6.477-14.436-14.436-14.436z"></path>
<path fill="#88e4e6" d="M16.001 32c-8.823 0-16.001-7.178-16.001-15.999 0-8.824 7.178-16.001 16.001-16.001s16.001 7.178 16.001 16.001c-0.002 8.821-7.179 15.999-16.001 15.999zM16.001 1.565c-7.959 0-14.436 6.475-14.436 14.436 0 7.959 6.475 14.436 14.434 14.436s14.436-6.477 14.436-14.436c0-7.96-6.475-14.436-14.434-14.436z"></path>
</svg>
