<?xml version="1.0" encoding="UTF-8" standalone="no"?>
<!-- Created with Inkscape (http://www.inkscape.org/) -->

<svg
   xmlns:dc="http://purl.org/dc/elements/1.1/"
   xmlns:cc="http://creativecommons.org/ns#"
   xmlns:rdf="http://www.w3.org/1999/02/22-rdf-syntax-ns#"
   xmlns:svg="http://www.w3.org/2000/svg"
   xmlns="http://www.w3.org/2000/svg"
   xmlns:sodipodi="http://sodipodi.sourceforge.net/DTD/sodipodi-0.dtd"
   xmlns:inkscape="http://www.inkscape.org/namespaces/inkscape"
   width="304mm"
   height="74mm"
   viewBox="0 0 1077.1653 262.20458"
   id="svg2"
   version="1.1"
   inkscape:version="0.91 r13725"
   sodipodi:docname="d0x_task_logo.svg">
  <defs
     id="defs4" />
  <sodipodi:namedview
     id="base"
     pagecolor="#ffffff"
     bordercolor="#666666"
     borderopacity="1.0"
     inkscape:pageopacity="0.0"
     inkscape:pageshadow="2"
     inkscape:zoom="0.49497475"
     inkscape:cx="714.10714"
     inkscape:cy="150.34494"
     inkscape:document-units="px"
     inkscape:current-layer="flowRoot4202"
     showgrid="false"
     height="209mm"
     inkscape:window-width="1280"
     inkscape:window-height="971"
     inkscape:window-x="-8"
     inkscape:window-y="-8"
     inkscape:window-maximized="1" />
  <metadata
     id="metadata7">
    <rdf:RDF>
      <cc:Work
         rdf:about="">
        <dc:format>image/svg+xml</dc:format>
        <dc:type
           rdf:resource="http://purl.org/dc/dcmitype/StillImage" />
        <dc:title />
      </cc:Work>
    </rdf:RDF>
  </metadata>
  <g
     inkscape:groupmode="layer"
     id="layer4"
     inkscape:label="Logo"
     style="display:inline"
     transform="translate(0,-177.16541)">
    <g
       id="g4218"
       transform="matrix(1.1240748,0,0,1.1240748,-32.443971,73.699626)">
      <g
         id="g4253">
        <g
           id="g4294">
          <g
             id="flowRoot4202"
             style="font-style:normal;font-variant:normal;font-weight:normal;font-stretch:normal;font-size:20px;line-height:125%;font-family:'Filson Soft';-inkscape-font-specification:'Filson Soft';letter-spacing:0px;word-spacing:0px;display:inline;fill:#454a8b;fill-opacity:1;stroke:none;stroke-width:1px;stroke-linecap:butt;stroke-linejoin:miter;stroke-opacity:1"
             transform="translate(6.9953321,-4.2858206)">
            <path
               id="path4284"
               style="font-size:79.99999237px;letter-spacing:-2.39999962px;fill:#454a8b;fill-opacity:1;stroke:#454a8b;stroke-width:2.66886122;stroke-miterlimit:4;stroke-dasharray:none;stroke-opacity:1"
               d="m 353.05226,257.09883 -40.95999,0 c -1.36,0 -2.16,0.8 -2.16,2.16 l 0,0.96 c 0,1.28 0.8,2.08 2.16,2.08 l 17.27999,0 0,48.63999 c 0,1.36 0.8,2.16 2.16,2.16 l 2,0 c 1.36,0 2.16,-0.8 2.16,-2.16 l 0,-48.63999 17.36,0 c 1.36,0 2.16,-0.8 2.16,-2.08 l 0,-0.96 c 0,-1.36 -0.8,-2.16 -2.16,-2.16 z"
               inkscape:connector-curvature="0" />
            <path
               id="path4286"
               style="font-size:79.99999237px;letter-spacing:-2.39999962px;fill:#454a8b;fill-opacity:1;stroke:#454a8b;stroke-width:2.66886122;stroke-miterlimit:4;stroke-dasharray:none;stroke-opacity:1"
               d="m 369.37601,313.97882 c 6.4,0 12.08,-2.64 15.68,-8.72 l 0,5.68 c 0,1.36 0.72,2.16 2.08,2.16 l 1.84,0 c 1.36,0 2.16,-0.8 2.16,-2.16 l 0,-35.6 c 0,-1.36 -0.8,-2.15999 -2.16,-2.15999 l -1.84,0 c -1.36,0 -2.08,0.87999 -2.08,2.15999 l 0,5.76 c -3.6,-6 -9.2,-8.79999 -15.68,-8.79999 -12.24,0 -19.92,9.43999 -19.92,20.87999 0,11.44 7.84,20.8 19.92,20.8 z m 0.72,-5.44 c -9.2,0 -14.56,-6.96 -14.56,-15.36 0,-8.4 5.28,-15.44 14.48,-15.44 9.04,0 15.12,6.64 15.12,15.44 0,8.96 -6.24,15.36 -15.04,15.36 z"
               inkscape:connector-curvature="0" />
            <path
               id="path4288"
               style="font-size:79.99999237px;letter-spacing:-2.39999962px;fill:#454a8b;fill-opacity:1;stroke:#454a8b;stroke-width:2.66886122;stroke-miterlimit:4;stroke-dasharray:none;stroke-opacity:1"
               d="m 412.53851,313.97882 c 7.44,0 13.84,-4.32 13.84,-11.6 0,-4.4 -2.16,-8.8 -9.28,-10.96 l -5.92,-1.92 c -2.72,-0.88 -5.52,-2.48 -5.52,-5.76 0,-3.2 2.64,-6.16 7.04,-6.16 2.24,0 4.56,0.96 6,3.04 0.8,1.12 1.52,1.6 2.72,1.28 l 1.28,-0.32 c 1.44,-0.32 2.16,-1.36 1.44,-2.72 -2.48,-4.72 -7.04,-6.55999 -11.6,-6.55999 -7.84,0 -12.8,5.27999 -12.8,11.59999 0,5.6 3.76,8.8 9.52,10.56 l 5.68,1.84 c 3.36,1.12 5.6,2.96 5.6,6 0,3.76 -3.44,6.4 -7.92,6.4 -3.68,0 -6.88,-1.6 -8.48,-4.08 -0.8,-1.04 -1.52,-1.52 -2.72,-1.2 l -1.44,0.4 c -1.36,0.4 -2.08,1.36 -1.28,2.72 2.48,4.8 7.84,7.44 13.84,7.44 z"
               inkscape:connector-curvature="0" />
            <path
               id="path4290"
               style="font-size:79.99999237px;letter-spacing:-2.39999962px;fill:#454a8b;fill-opacity:1;stroke:#454a8b;stroke-width:2.66886122;stroke-miterlimit:4;stroke-dasharray:none;stroke-opacity:1"
               d="m 461.4735,313.97882 c 0.96,0 3.52,-0.08 5.84,-1.28 1.6,-0.8 1.92,-1.84 1.52,-2.56 l -0.96,-2 c -0.4,-0.72 -0.96,-0.8 -1.76,-0.48 -1.52,0.72 -3.12,0.88 -4,0.88 -3.68,0 -5.68,-2.72 -8.08,-5.84 l -8.16,-11.04 14.56,-15.84 c 1.12,-1.36 0.56,-2.63999 -1.28,-2.63999 l -2.4,0 c -1.12,0 -2,0.39999 -2.64,1.27999 l -14.48,15.92 0,-32.95999 c 0,-1.36 -0.8,-2.16 -2.16,-2.16 l -1.84,0 c -1.28,0 -2.08,0.8 -2.08,2.16 l 0,53.51999 c 0,1.36 0.8,2.16 2.08,2.16 l 1.84,0 c 1.36,0 2.16,-0.8 2.16,-2.16 l 0,-18.4 9.36,13.12 c 2.4,3.04 5.52,8.32 12.48,8.32 z"
               inkscape:connector-curvature="0" />
            <path
               id="path4292"
               style="font-size:79.99999237px;letter-spacing:-2.39999962px;fill:#454a8b;fill-opacity:1;stroke:#454a8b;stroke-width:2.66886115;stroke-miterlimit:4;stroke-dasharray:none;stroke-opacity:1"
               d="m 485.45525,313.97882 c 7.44,0 13.84,-4.32 13.84,-11.6 0,-4.4 -2.16,-8.8 -9.28,-10.96 l -5.92,-1.92 c -2.72,-0.88 -5.52,-2.48 -5.52,-5.76 0,-3.2 2.64,-6.16 7.04,-6.16 2.24,0 4.56,0.96 6,3.04 0.8,1.12 1.52,1.6 2.72,1.28 l 1.28,-0.32 c 1.44,-0.32 2.16,-1.36 1.44,-2.72 -2.48,-4.72 -7.04,-6.55999 -11.6,-6.55999 -7.84,0 -12.8,5.27999 -12.8,11.59999 0,5.6 3.76,8.8 9.52,10.56 l 5.68,1.84 c 3.36,1.12 5.6,2.96 5.6,6 0,3.76 -3.44,6.4 -7.92,6.4 -3.68,0 -6.88,-1.6 -8.48,-4.08 -0.8,-1.04 -1.52,-1.52 -2.72,-1.2 l -1.44,0.4 c -1.36,0.4 -2.08,1.36 -1.28,2.72 2.48,4.8 7.84,7.44 13.84,7.44 z"
               inkscape:connector-curvature="0" />
          </g>
          <g
             id="g4179"
             style="display:inline">
            <g
               transform="matrix(0.98650961,0,0,0.98650961,32.624722,-18.305015)"
               style="font-style:normal;font-variant:normal;font-weight:normal;font-stretch:normal;font-size:137.49998474px;line-height:125%;font-family:'Filson Soft';-inkscape-font-specification:'Filson Soft';letter-spacing:20.70937538px;word-spacing:0px;display:inline;fill:#2c3690;fill-opacity:1;stroke:none;stroke-width:1px;stroke-linecap:butt;stroke-linejoin:miter;stroke-opacity:1"
               id="flowRoot4153">
              <path
                 d="m 324.59303,226.57694 c 10.8625,0 20.7625,-4.5375 26.81249,-14.9875 l 0,9.7625 c 0,2.3375 1.375,3.7125 3.7125,3.7125 l 3.1625,0 c 2.3375,0 3.7125,-1.375 3.7125,-3.7125 l 0,-91.98749 c 0,-2.3375 -1.375,-3.7125 -3.7125,-3.7125 l -3.1625,0 c -2.3375,0 -3.7125,1.375 -3.7125,3.7125 l 0,40.5625 c -6.04999,-10.3125 -15.94999,-14.9875 -26.81249,-14.9875 -20.9,0 -34.375,16.0875 -34.375,35.88749 0,19.6625 13.475,35.75 34.375,35.75 z m 1.2375,-9.35 c -15.8125,0 -25.025,-11.9625 -25.025,-26.4 0,-14.575 9.2125,-26.53749 25.025,-26.53749 15.125,0 25.71249,10.99999 25.84999,26.53749 -0.1375,15.4 -10.72499,26.4 -25.84999,26.4 z"
                 style="font-size:137.49998474px;letter-spacing:7.09572315px;fill:#2c3690;fill-opacity:1;stroke:#2c3690;stroke-width:5.4107151;stroke-miterlimit:4;stroke-dasharray:none;stroke-opacity:1"
                 id="path4170"
                 inkscape:connector-curvature="0" />
              <path
                 inkscape:connector-curvature="0"
                 d="m 395.35119,141.32695 c 4.26249,0 7.56249,-3.3 7.56249,-7.7 0,-4.5375 -3.3,-7.8375 -7.56249,-7.8375 -4.4,0 -7.5625,3.3 -7.5625,7.8375 0,4.4 3.1625,7.7 7.5625,7.7 z m -1.5125,83.73749 3.1625,0 c 2.19999,0 3.57499,-1.375 3.57499,-3.7125 l 0,-61.18749 c 0,-2.3375 -1.375,-3.7125 -3.57499,-3.7125 l -3.1625,0 c -2.3375,0 -3.7125,1.5125 -3.7125,3.7125 l 0,61.18749 c 0,2.3375 1.375,3.7125 3.7125,3.7125 z"
                 style="font-size:137.49998474px;letter-spacing:7.09572315px;fill:#2c3690;fill-opacity:1;stroke:#2c3690;stroke-width:5.4107151;stroke-miterlimit:4;stroke-dasharray:none;stroke-opacity:1"
                 id="path4172" />
              <path
                 inkscape:connector-curvature="0"
                 d="m 449.07874,226.57694 c 12.7875,0 23.7875,-7.425 23.7875,-19.9375 0,-7.5625 -3.7125,-15.125 -15.95,-18.8375 l -10.175,-3.3 c -4.675,-1.5125 -9.4875,-4.2625 -9.4875,-9.9 0,-5.49999 4.5375,-10.58749 12.1,-10.58749 3.85,0 7.8375,1.65 10.3125,5.225 1.375,1.925 2.6125,2.75 4.675,2.2 l 2.2,-0.55 c 2.475,-0.55 3.7125,-2.3375 2.475,-4.675 -4.2625,-8.1125 -12.1,-11.275 -19.9375,-11.275 -13.475,0 -22,9.075 -22,19.93749 0,9.625 6.4625,15.125 16.3625,18.15 l 9.7625,3.1625 c 5.775,1.925 9.625,5.0875 9.625,10.3125 0,6.4625 -5.9125,11 -13.6125,11 -6.325,0 -11.825,-2.75 -14.575,-7.0125 -1.375,-1.7875 -2.6125,-2.6125 -4.675,-2.0625 l -2.475,0.6875 c -2.3375,0.6875 -3.575,2.3375 -2.2,4.675 4.2625,8.25 13.475,12.7875 23.7875,12.7875 z"
                 style="font-size:137.49998474px;letter-spacing:7.09572315px;fill:#2c3690;fill-opacity:1;stroke:#2c3690;stroke-width:5.4107151;stroke-miterlimit:4;stroke-dasharray:none;stroke-opacity:1"
                 id="path4174" />
              <path
                 inkscape:connector-curvature="0"
                 d="m 519.93149,226.57694 c 12.5125,0 19.25,-7.425 19.25,-16.9125 0,0 0,-2.3375 -0.55,-4.5375 -0.275,-1.2375 -1.2375,-1.7875 -2.475,-1.7875 l -4.8125,0 c -1.5125,0 -2.0625,0.825 -1.925,2.475 0.275,1.1 0.275,2.0625 0.275,2.475 0,5.775 -4.4,9.075 -9.7625,9.075 -5.225,0 -9.9,-3.025 -9.9,-13.0625 l 0,-39.46249 19.9375,0 c 1.375,0 2.2,-0.6875 2.2,-2.2 l 0,-3.9875 c 0,-1.375 -0.825,-2.2 -2.2,-2.2 l -19.9375,0 0,-17.4625 c 0,-2.0625 -1.2375,-3.1625 -3.3,-3.1625 l -1.7875,0 c -1.925,0 -3.1625,0.9625 -3.4375,3.025 l -2.0625,17.6 -9.35,0 c -1.5125,0 -2.2,0.825 -2.2,2.2 l 0,3.9875 c 0,1.5125 0.6875,2.2 2.2,2.2 l 9.35,0 0,38.77499 c 0,18.0125 10.175,22.9625 20.4875,22.9625 z"
                 style="font-size:137.49998474px;letter-spacing:7.09572315px;fill:#2c3690;fill-opacity:1;stroke:#2c3690;stroke-width:5.4107151;stroke-miterlimit:4;stroke-dasharray:none;stroke-opacity:1"
                 id="path4176" />
              <path
                 d="m 564.84538,225.06444 3.1625,0 c 2.3375,0 3.7125,-1.375 3.7125,-3.7125 l 0,-22.4125 c 0.1375,-26.12499 10.5875,-33.82499 19.3875,-33.82499 1.1,0 2.47499,0.1375 3.71249,0.275 1.7875,0.55 2.75,-0.55 2.75,-3.1625 l 0,-2.8875 c 0,-2.0625 -0.4125,-3.7125 -2.475,-4.125 -0.9625,-0.1375 -2.47499,-0.275 -3.29999,-0.275 -10.0375,0 -17.4625,7.0125 -20.075,18.15 l 0,-12.925 c 0,-2.3375 -1.375,-3.7125 -3.7125,-3.7125 l -3.1625,0 c -2.2,0 -3.575,1.5125 -3.575,3.7125 l 0,61.18749 c 0,2.3375 1.375,3.7125 3.575,3.7125 z"
                 style="font-size:137.49998474px;letter-spacing:7.09572315px;fill:#2c3690;fill-opacity:1;stroke:#2c3690;stroke-width:5.4107151;stroke-miterlimit:4;stroke-dasharray:none;stroke-opacity:1"
                 id="path4178"
                 inkscape:connector-curvature="0" />
              <path
                 inkscape:connector-curvature="0"
                 d="m 620.58463,141.32695 c 4.2625,0 7.5625,-3.3 7.5625,-7.7 0,-4.5375 -3.3,-7.8375 -7.5625,-7.8375 -4.4,0 -7.5625,3.3 -7.5625,7.8375 0,4.4 3.1625,7.7 7.5625,7.7 z m -1.5125,83.73749 3.1625,0 c 2.2,0 3.575,-1.375 3.575,-3.7125 l 0,-61.18749 c 0,-2.3375 -1.375,-3.7125 -3.575,-3.7125 l -3.1625,0 c -2.3375,0 -3.7125,1.5125 -3.7125,3.7125 l 0,61.18749 c 0,2.3375 1.375,3.7125 3.7125,3.7125 z"
                 style="font-size:137.49998474px;letter-spacing:7.09572315px;fill:#2c3690;fill-opacity:1;stroke:#2c3690;stroke-width:5.4107151;stroke-miterlimit:4;stroke-dasharray:none;stroke-opacity:1"
                 id="path4180" />
              <path
                 inkscape:connector-curvature="0"
                 d="m 688.8872,226.57694 c 4.675,0 11.96249,-0.9625 19.24999,-4.95 3.4375,-1.7875 4.125,-4.2625 2.75,-6.1875 l -0.825,-1.2375 c -1.2375,-1.925 -2.8875,-2.2 -5.0875,-1.1 -6.6,3.7125 -13.06249,4.125 -15.67499,4.125 -16.9125,0 -28.325,-11.1375 -28.4625,-26.4 0.1375,-15.2625 11.55,-26.53749 28.4625,-26.53749 2.6125,0 9.07499,0.4125 15.67499,4.125 2.2,1.1 3.7125,0.9625 5.0875,-0.9625 l 0.9625,-1.2375 c 1.375,-1.925 1.1,-3.9875 -1.1,-5.225 -7.975,-4.8125 -15.94999,-6.05 -21.03749,-6.05 -24.8875,0 -38.6375,16.3625 -38.6375,36.43749 0.1375,19.525 14.3,35.2 38.6375,35.2 z"
                 style="font-size:137.49998474px;letter-spacing:7.09572315px;fill:#2c3690;fill-opacity:1;stroke:#2c3690;stroke-width:5.4107151;stroke-miterlimit:4;stroke-dasharray:none;stroke-opacity:1"
                 id="path4182" />
              <path
                 inkscape:connector-curvature="0"
                 d="m 759.12978,226.57694 c 12.51249,0 19.24999,-7.425 19.24999,-16.9125 0,0 0,-2.3375 -0.55,-4.5375 -0.275,-1.2375 -1.2375,-1.7875 -2.475,-1.7875 l -4.8125,0 c -1.5125,0 -2.0625,0.825 -1.925,2.475 0.275,1.1 0.275,2.0625 0.275,2.475 0,5.775 -4.4,9.075 -9.76249,9.075 -5.225,0 -9.9,-3.025 -9.9,-13.0625 l 0,-39.46249 19.93749,0 c 1.375,0 2.2,-0.6875 2.2,-2.2 l 0,-3.9875 c 0,-1.375 -0.825,-2.2 -2.2,-2.2 l -19.93749,0 0,-17.4625 c 0,-2.0625 -1.2375,-3.1625 -3.3,-3.1625 l -1.7875,0 c -1.925,0 -3.1625,0.9625 -3.4375,3.025 l -2.0625,17.6 -9.35,0 c -1.5125,0 -2.2,0.825 -2.2,2.2 l 0,3.9875 c 0,1.5125 0.6875,2.2 2.2,2.2 l 9.35,0 0,38.77499 c 0,18.0125 10.175,22.9625 20.4875,22.9625 z"
                 style="font-size:137.49998474px;letter-spacing:7.09572315px;fill:#2c3690;fill-opacity:1;stroke:#2c3690;stroke-width:5.4107151;stroke-miterlimit:4;stroke-dasharray:none;stroke-opacity:1"
                 id="path4184" />
            </g>
            <g
               transform="matrix(0.98650961,0,0,0.98650961,632.62472,-16.812919)"
               style="font-style:normal;font-variant:normal;font-weight:normal;font-stretch:normal;font-size:137.49998474px;line-height:125%;font-family:'Filson Soft';-inkscape-font-specification:'Filson Soft';letter-spacing:20.70937538px;word-spacing:0px;display:inline;fill:#2c3690;fill-opacity:1;stroke:#2c3690;stroke-width:5.4107151;stroke-linecap:butt;stroke-linejoin:miter;stroke-miterlimit:4;stroke-dasharray:none;stroke-opacity:1"
               id="flowRoot4161">
              <path
                 d="m 290.00742,225.06444 3.85,0 c 1.925,0 3.3,-0.55 4.5375,-2.0625 l 22.9625,-27.225 22.825,27.225 c 1.23749,1.5125 2.61249,2.0625 4.53749,2.0625 l 3.85,0 c 3.1625,0 4.125,-2.0625 2.2,-4.5375 l -26.39999,-31.35 23.78749,-28.18749 c 1.925,-2.3375 0.9625,-4.5375 -2.2,-4.5375 l -3.3,0 c -1.92499,0 -3.29999,0.6875 -4.53749,2.2 l -20.7625,24.19999 -20.9,-24.19999 c -1.2375,-1.5125 -2.6125,-2.2 -4.5375,-2.2 l -3.3,0 c -3.1625,0 -4.125,2.2 -2.2,4.5375 l 23.7875,28.18749 -26.4,31.35 c -1.925,2.475 -0.9625,4.5375 2.2,4.5375 z"
                 style="font-size:137.49998474px;letter-spacing:7.09572315px;fill:#2c3690;fill-opacity:1;stroke:#2c3690;stroke-width:5.4107151;stroke-miterlimit:4;stroke-dasharray:none;stroke-opacity:1"
                 id="path4251"
                 inkscape:connector-curvature="0" />
            </g>
            <g
               id="g4198"
               transform="translate(-1.2708863,0.55331026)">
              <path
                 transform="translate(0,-1.0681151e-4)"
                 id="path4189"
                 d="m 859.17578,106.43359 a 42.378408,50.114893 0 0 0 -42.3789,50.11329 42.378408,50.114893 0 0 0 42.3789,50.11523 42.378408,50.114893 0 0 0 42.37891,-50.11523 42.378408,50.114893 0 0 0 -42.37891,-50.11329 z m 0,13.11719 a 27.652233,36.996289 0 0 1 27.65234,36.9961 27.652233,36.996289 0 0 1 -27.65234,36.99804 27.652233,36.996289 0 0 1 -27.65234,-36.99804 27.652233,36.996289 0 0 1 27.65234,-36.9961 z"
                 style="opacity:0.98999999;fill:#2c3690;fill-opacity:1;stroke:none;stroke-width:0.99999988;stroke-linecap:round;stroke-linejoin:round;stroke-miterlimit:4;stroke-dasharray:none;stroke-opacity:1"
                 inkscape:connector-curvature="0" />
              <rect
                 transform="matrix(0.75400723,0.65686612,-0.67413286,0.73861011,0,0)"
                 y="-486.95959"
                 x="734.32056"
                 height="79.493927"
                 width="14.722666"
                 id="rect4194"
                 style="opacity:0.98999999;fill:#2c3690;fill-opacity:1;stroke:none;stroke-width:1;stroke-linecap:round;stroke-linejoin:round;stroke-miterlimit:4;stroke-dasharray:none;stroke-opacity:1" />
            </g>
          </g>
          <g
             id="g4228">
            <g
               id="g4220">
              <g
                 id="g4237">
                <path
                   style="display:inline;fill:#2c3690;fill-opacity:1;fill-rule:evenodd;stroke:none;stroke-width:1px;stroke-linecap:butt;stroke-linejoin:miter;stroke-opacity:1"
                   d="M 59.285714,140.79854 C 74.732117,118.70278 98.130932,97.908297 125.71429,95.084265 187.1657,88.792764 245.06435,137.08276 255,193.65569 c 6.22254,45.45527 -16.54134,93.5282 -52.85714,115 -39.86403,23.5697 -101.91975,19.42069 -138.571431,-10 C 45.709601,283.98422 33.222485,258.8437 31.428571,235.79855 29.487151,199.0506 40.705598,167.54794 59.285714,140.79854 Z"
                   id="path4148"
                   inkscape:connector-curvature="0"
                   sodipodi:nodetypes="cscaccc" />
                <path
                   inkscape:connector-curvature="0"
                   style="display:inline;fill:#9cf7f9;fill-opacity:1;fill-rule:evenodd;stroke:none;stroke-width:1px;stroke-linecap:butt;stroke-linejoin:miter;stroke-opacity:1"
                   d="m 167.14258,98.527516 0,165.484374 a 15.0015,15.0015 0 1 0 30,0 l 0,-152.25976 c -9.35064,-5.69923 -19.44107,-10.20393 -30,-13.224614 z"
                   id="path4212" />
                <path
                   style="display:inline;fill:#6cebc9;fill-opacity:1;fill-rule:evenodd;stroke:none;stroke-width:1px;stroke-linecap:butt;stroke-linejoin:miter;stroke-opacity:1"
                   d="m 132.14286,140.79855 c -2.83314,-2.99491 -1.7556,-9.32075 1.07143,-12.32143 3.91953,-4.16029 11.50624,-4.19721 16.96428,-2.5 3.33806,1.03799 6.92899,3.72844 7.67857,7.14286 0.53804,2.45083 -0.79527,5.53434 -2.85714,6.96428 -6.26384,4.34406 -17.61866,6.25188 -22.85714,0.71429 z"
                   id="path4155"
                   inkscape:connector-curvature="0"
                   sodipodi:nodetypes="aaaaaa" />
                <path
                   style="display:inline;fill:#6cebc9;fill-opacity:1;fill-rule:evenodd;stroke:none;stroke-width:1px;stroke-linecap:butt;stroke-linejoin:miter;stroke-opacity:1"
                   d="m 240.72324,182.07801 c -2.77444,-0.0665 -5.47697,0.27654 -7.25586,2.11329 -5.46026,5.63787 -4.24573,15.70183 -2.67968,23.39257 0,0 1.97901,8.41551 2.58398,12.68946 0.88665,6.26393 -3.20465,14.71461 1.52344,18.91797 2.40388,2.13709 6.43785,-0.0827 9.64258,-0.35743 2.41185,-0.20677 5.16325,0.13969 7.78906,0.22461 3.82904,-14.69921 5.00757,-30.19497 2.92578,-45.40234 -0.63552,-3.6186 -1.46997,-7.20348 -2.48633,-10.74219 -2.40828,-0.30458 -4.91481,-0.36103 -7.15625,-0.50781 -1.5309,-0.10025 -3.22205,-0.28824 -4.88672,-0.32813 z"
                   id="path4203"
                   inkscape:connector-curvature="0" />
                <path
                   style="display:inline;fill:#6cebc9;fill-opacity:1;fill-rule:evenodd;stroke:none;stroke-width:1px;stroke-linecap:butt;stroke-linejoin:miter;stroke-opacity:1"
                   d="m 54.298243,257.28759 c -3.497111,0.14123 -7.276155,1.87484 -8.835937,4.47851 -2.905614,4.8502 -2.857422,10 -2.857422,10 0,0 0.09588,1.16656 0.134766,1.7168 5.406401,9.85752 12.431718,18.73282 20.580078,25.42578 16.944254,13.60133 39.319432,21.78858 62.419922,24.3457 0.58897,-0.58675 1.0989,-1.25627 1.50781,-2.02539 2.31573,-4.35561 -2.01231,-10.00248 -5,-13.92773 -8.38191,-11.0122 -23.004853,-15.42976 -33.927732,-23.92774 -9.895895,-7.69899 -14.992075,-12.25869 -28.572266,-24.46484 -1.354391,-1.21736 -3.350952,-1.70583 -5.449219,-1.62109 z"
                   id="path4200"
                   inkscape:connector-curvature="0" />
                <path
                   inkscape:connector-curvature="0"
                   style="opacity:0.98999999;fill:#9df9fa;fill-opacity:1;stroke:none;stroke-width:0.39737403;stroke-miterlimit:4;stroke-dasharray:none;stroke-opacity:1"
                   d="m 140.79102,164.85938 a 55.938514,56.952132 0 0 0 -55.939458,56.95312 55.938514,56.952132 0 0 0 55.939458,56.95117 55.938514,56.952132 0 0 0 55.9375,-56.95117 55.938514,56.952132 0 0 0 -55.9375,-56.95312 z m 0,30.19921 a 26.276771,26.752912 0 0 1 26.27539,26.75391 26.276771,26.752912 0 0 1 -26.27539,26.75195 26.276771,26.752912 0 0 1 -26.27735,-26.75195 26.276771,26.752912 0 0 1 26.27735,-26.75391 z"
                   transform="translate(0,-1.0681151e-4)"
                   id="path4160" />
              </g>
            </g>
          </g>
        </g>
      </g>
    </g>
  </g>
</svg>
